<svg width="960" height="240" viewBox="0 0 960 240" fill="none" xmlns="http://www.w3.org/2000/svg">
<path d="M3.17808 236.918H0L12.9679 146.041H16.2096C10.2245 213.444 23.9391 236.597 45.3844 236.597C67.5764 236.597 79.2955 209.36 79.2955 180.766C79.2955 154.894 66.6903 142.29 55.2196 131.056C33.7756 110.288 25.9332 96.0014 25.9332 65.3618C25.9332 35.0633 38.1532 0 65.0828 0C75.3059 0 81.0413 5.78785 86.7779 15.9994C87.247 16.8002 87.7605 17.7942 88.3041 18.8464C90.073 22.2704 92.1601 26.3102 94.0676 26.3102C96.895 26.3102 97.0419 25.7718 102.314 6.44757L103.287 2.88H107.525L93.9202 93.2756H90.268C93.5097 23.1478 80.7928 3.40305 64.8343 3.40305C42.641 3.40305 33.4156 33.7016 33.664 61.2767C33.9124 79.6597 40.1473 92.5947 59.5972 110.639C79.0471 128.681 87.7743 144.341 87.2748 172.935C86.7779 204.256 72.314 240 45.1333 240C29.9376 240 23.1397 230.125 18.8756 223.931L18.4522 223.317C18.1806 222.947 17.9151 222.568 17.6518 222.193C16.223 220.155 14.8613 218.213 12.9666 218.213C9.47651 218.213 6.66949 222.961 3.17808 236.918Z" fill="white"/>
<path fill-rule="evenodd" clip-rule="evenodd" d="M130.183 28.0369C132.698 11.629 130.685 7.18394 121.631 7.18394H116.348L117.102 2.73889H163.135L162.381 7.18394H157.349C148.294 7.18394 144.521 10.9458 142.005 28.0369L119.368 171.97C117.857 182.224 116.852 192.822 117.103 199.659C117.857 220.516 126.914 233.164 146.03 233.164C169.424 233.164 178.73 205.131 184.768 166.157L202.88 51.2876C207.911 19.1491 206.653 7.18394 191.309 7.18394H190.051L190.805 2.73889L281.757 2.73781C303.673 2.73781 319.795 17.8028 319.795 48.9583C319.795 94.4945 296.367 126.331 260.597 126.331H245.482L232.133 211.923C229.613 228.357 232.133 232.466 241.452 232.466H249.262L248.507 236.918H200.142L200.898 232.466L205.935 232.467C214.248 232.467 217.774 229.044 220.293 211.924L249.262 27.7325C251.782 11.2987 249.262 7.18994 240.697 7.18994H232.529L230.297 7.18394C217.469 7.18394 212.69 18.4659 207.658 49.9164L189.296 166.84C182.504 209.233 171.94 240 141.501 240C117.606 240 106.287 223.933 106.035 196.24C106.035 187.009 107.041 176.07 108.802 164.105L130.183 28.0369ZM306.948 47.5907C306.444 89.3603 292.337 121.885 260.094 121.885H246.239L261.101 27.3891C263.621 10.9577 267.651 7.19112 276.468 7.19112H279.239C302.163 7.19112 307.199 29.1025 306.948 47.5907Z" fill="white"/>
<path d="M291.823 232.467C300.135 232.467 303.41 229.044 306.18 211.584L334.897 28.759C337.919 10.9588 335.148 7.19102 326.583 7.19102H321.546L322.302 2.73889H411.831L398.881 84.9081H396.11C403.162 23.6261 401.4 7.19102 371.172 7.19102H362.355C353.537 7.19102 349.759 10.2732 346.989 27.7336L333.638 112.981H341.194C359.331 112.981 366.385 92.099 370.666 64.3667H373.437L357.064 169.132H354.293C358.826 140.715 358.826 117.434 340.438 117.434H332.881L318.019 211.925C315.499 229.045 318.521 232.468 327.339 232.468H338.422C367.39 232.468 378.223 205.765 389.558 147.561H392.329L377.971 236.92H286.027L286.782 232.468L291.823 232.467Z" fill="white"/>
<path fill-rule="evenodd" clip-rule="evenodd" d="M464.107 123.593V122.909C489.802 111.611 505.668 82.508 505.668 47.245C506.426 17.8028 491.06 2.73779 466.877 2.73779H424.807L424.052 7.18992H429.343C438.16 7.18992 440.175 11.6421 437.656 27.7325L408.938 210.554C406.673 226.648 403.398 232.466 394.33 232.466H389.291L388.535 236.918H434.131L434.886 232.466H429.091C420.276 232.466 418.26 227.333 420.529 211.239L434.131 125.307H446.726C463.856 125.307 470.154 126.332 465.115 187.274C461.84 228.358 467.382 240 477.962 240C487.031 240 497.359 223.566 501.138 183.851H497.611C494.84 213.293 488.794 225.276 483.757 225.276C477.963 225.276 475.443 218.773 477.712 172.552C478.971 140.372 472.421 129.757 464.107 123.593ZM492.824 42.112C492.824 75.3218 481.238 120.854 454.284 120.854H434.886L449.497 27.388C452.015 10.9565 456.045 7.18992 464.863 7.18992H467.634C490.306 7.18992 493.077 24.9926 492.824 42.112Z" fill="white"/>
<path d="M503.329 232.467C511.642 232.467 514.917 229.387 517.686 211.924L546.655 27.7325C549.426 10.2733 546.655 7.18992 538.089 7.18992H533.053L533.808 2.73779H621.07L607.866 84.2214H605.095C612.652 21.5694 608.622 7.18874 582.173 7.18874H573.86C565.043 7.18874 561.264 9.5865 558.494 27.7313L544.638 115.377H552.952C571.086 115.377 575.622 98.2575 581.416 67.102H584.187L568.065 170.838H565.295C568.821 142.08 570.331 119.828 552.448 119.828H543.882L529.525 211.922C526.753 229.385 530.028 232.465 538.844 232.465H545.394L544.639 236.917H497.533L498.288 232.465L503.329 232.467Z" fill="white"/>
<path fill-rule="evenodd" clip-rule="evenodd" d="M708.81 74.2585C708.81 30.0392 697.138 0 676.028 0C638.774 0 606.736 90.461 606.736 166.069C606.736 210.29 618.657 239.656 639.767 239.656C677.517 239.656 708.81 148.181 708.81 74.2585ZM675.531 3.03495C691.178 3.03495 697.139 22.6135 697.386 51.3051C697.636 71.2188 694.905 95.5244 690.931 120.503C681.491 181.597 666.094 236.617 640.265 236.617C624.371 236.617 617.665 216.364 617.665 187.336C617.665 167.758 620.148 143.791 624.122 119.153C633.56 58.0547 649.953 3.03495 675.531 3.03495Z" fill="white"/>
<path fill-rule="evenodd" clip-rule="evenodd" d="M759.431 122.909V123.593C767.744 129.757 774.294 140.372 773.033 172.552C770.765 218.773 773.285 225.276 779.079 225.276C784.116 225.276 790.162 213.293 792.933 183.851H796.46C792.681 223.566 782.353 240 773.283 240C762.704 240 757.162 228.358 760.437 187.274C765.473 126.332 759.178 125.307 742.048 125.307H729.452L715.85 211.239C713.582 227.333 715.598 232.466 724.413 232.466H730.208L729.452 236.918H683.857L684.612 232.466H689.652C698.72 232.466 701.995 226.648 704.26 210.554L732.977 27.7325C735.497 11.6421 733.481 7.18992 724.665 7.18992H719.374L720.129 2.73779H762.198C786.381 2.73779 801.745 17.8028 800.99 47.245C800.99 82.508 785.125 111.611 759.431 122.909ZM749.607 120.854C776.561 120.854 788.147 75.3218 788.147 42.112C788.4 24.9926 785.628 7.18992 762.958 7.18992H760.187C751.37 7.18992 747.34 10.9565 744.82 27.388L730.209 120.854H749.607Z" fill="white"/>
<path d="M960 2.73889H929.631L863.372 204.738L860.109 2.74007H829.739L828.737 7.1922H834.008C842.541 7.1922 844.801 10.9588 842.29 28.0746L816.941 190.014C811.419 225.278 807.654 232.468 795.607 232.468H794.102L793.35 236.92H830.494L831.25 232.468H830.494C816.188 232.468 815.938 225.965 821.46 190.014L848.065 19.5185H848.315L853.083 239.658H855.844L928.379 19.5185H928.881L899.014 211.584C896.253 229.387 892.74 232.467 884.205 232.467H879.185L878.432 236.919H923.357L924.11 232.467H918.839C910.556 232.467 908.046 229.044 910.806 211.584L939.419 27.7336C942.179 10.2732 946.195 7.19102 954.729 7.19102H959.248L960 2.73889Z" fill="white"/>
</svg>
